<svg width="30" height="30" viewBox="0 0 30 30" fill="none" xmlns="http://www.w3.org/2000/svg">
<rect width="30" height="30" rx="12" fill="#FFD15C"/>
<path d="M11.0468 21.5316H10.1093C9.92286 21.5316 9.74402 21.4575 9.61216 21.3257C9.4803 21.1938 9.40622 21.015 9.40622 20.8285V16.6097C9.40622 16.4233 9.4803 16.2444 9.61216 16.1126C9.74402 15.9807 9.92286 15.9066 10.1093 15.9066H11.0468C11.2333 15.9066 11.4122 15.9807 11.544 16.1126C11.6759 16.2444 11.75 16.4233 11.75 16.6097V20.8285C11.75 21.015 11.6759 21.1938 11.544 21.3257C11.4122 21.4575 11.2333 21.5316 11.0468 21.5316V21.5316Z" fill="white"/>
<path d="M17.6094 21.5308H16.6719C16.4854 21.5308 16.3066 21.4567 16.1747 21.3249C16.0428 21.193 15.9688 21.0142 15.9688 20.8277V13.7964C15.9688 13.61 16.0428 13.4311 16.1747 13.2992C16.3066 13.1674 16.4854 13.0933 16.6719 13.0933H17.6094C17.7959 13.0933 17.9747 13.1674 18.1066 13.2992C18.2384 13.4311 18.3125 13.61 18.3125 13.7964V20.8277C18.3125 21.0142 18.2384 21.193 18.1066 21.3249C17.9747 21.4567 17.7959 21.5308 17.6094 21.5308V21.5308Z" fill="white"/>
<path d="M20.8906 21.5312H19.9531C19.7666 21.5312 19.5878 21.4571 19.4559 21.3252C19.324 21.1934 19.25 21.0145 19.25 20.828V10.5155C19.25 10.3291 19.324 10.1502 19.4559 10.0184C19.5878 9.8865 19.7666 9.81242 19.9531 9.81242H20.8906C21.0771 9.81242 21.2559 9.8865 21.3878 10.0184C21.5196 10.1502 21.5937 10.3291 21.5937 10.5155V20.828C21.5937 21.0145 21.5196 21.1934 21.3878 21.3252C21.2559 21.4571 21.0771 21.5312 20.8906 21.5312V21.5312Z" fill="white"/>
<path d="M14.3281 21.531H13.3906C13.2041 21.531 13.0253 21.4569 12.8934 21.3251C12.7616 21.1932 12.6875 21.0144 12.6875 20.8279V8.17163C12.6875 7.98515 12.7616 7.80631 12.8934 7.67445C13.0253 7.54258 13.2041 7.46851 13.3906 7.46851H14.3281C14.5146 7.46851 14.6934 7.54258 14.8253 7.67445C14.9572 7.80631 15.0312 7.98515 15.0312 8.17163V20.8279C15.0312 21.0144 14.9572 21.1932 14.8253 21.3251C14.6934 21.4569 14.5146 21.531 14.3281 21.531V21.531Z" fill="white"/>
</svg>
